<svg id="svg5" height="48" viewBox="0 0 48 48" width="48" xmlns="http://www.w3.org/2000/svg" xmlns:svg="http://www.w3.org/2000/svg"><g id="layer1" stroke-dashoffset=".8" stroke-linecap="round" stroke-linejoin="round" stroke-miterlimit="3.3" transform="translate(-458 -665)"><path id="path145011" d="m489.87553 676.89057 4.24264 4.24264-26.87005 26.87006-4.24264-4.24264z" fill="#8bc4ff" stroke-width="2"/><g fill="#2e58ff"><path id="path145013" d="m490.58294 676.18239a1.0001 1.0001 0 0 0 -1.41422 0l-26.87005 26.87006a1.0001 1.0001 0 0 0 0 1.41421l4.24264 4.24264a1.0001 1.0001 0 0 0 1.41421 0l26.87006-26.87006a1.0001 1.0001 0 0 0 0-1.41421zm-.70711 2.12132 2.82843 2.82843-25.45585 25.45584-2.82842-2.82843z"/><path id="rect53606" d="m498.00551 685.87638-.80078 3.19922-3.19922.80078 3.19922.80078.80078 3.19922.80078-3.19922 3.19922-.80078-3.19922-.80078z" stroke-width="2"/><path id="path53619" d="m497.00551 669.00325-1.00097 3.99902-3.99903 1.00098 3.99903 1.00098 1.00097 3.99902 1.00097-3.99902 3.99903-1.00098-3.99903-1.00098z" stroke-width="2"/><path id="path57151" d="m482.00551 669.00325-.80078 3.19922-3.19922.80078 3.19922.80078.80078 3.19922.80078-3.19922 3.19922-.80078-3.19922-.80078z" stroke-width="2"/></g></g></svg>